<svg xmlns="http://www.w3.org/2000/svg" viewBox="0 0 512 512" role="img" aria-labelledby="title">
  <title>HAY FULBO HF</title>
  <defs>
    <linearGradient id="bg" x1="64" y1="64" x2="448" y2="448" gradientUnits="userSpaceOnUse">
      <stop offset="0" stop-color="#17472d"/>
      <stop offset="0.48" stop-color="#07110d"/>
      <stop offset="1" stop-color="#030706"/>
    </linearGradient>
    <linearGradient id="green" x1="116" y1="126" x2="396" y2="386" gradientUnits="userSpaceOnUse">
      <stop offset="0" stop-color="#b6ffd0"/>
      <stop offset="0.44" stop-color="#70ff9d"/>
      <stop offset="1" stop-color="#21d46f"/>
    </linearGradient>
    <filter id="glow" x="-30%" y="-30%" width="160%" height="160%">
      <feGaussianBlur stdDeviation="14" result="blur"/>
      <feColorMatrix in="blur" type="matrix" values="0 0 0 0 0.24 0 0 0 0 1 0 0 0 0 0.52 0 0 0 .52 0"/>
      <feMerge>
        <feMergeNode/>
        <feMergeNode in="SourceGraphic"/>
      </feMerge>
    </filter>
  </defs>
  <rect x="34" y="34" width="444" height="444" rx="92" fill="url(#bg)"/>
  <path d="M86 386 426 106" fill="none" stroke="#70ff9d" stroke-width="18" stroke-linecap="round" opacity=".25"/>
  <path d="M348 134h82M318 182h82M286 230h82" fill="none" stroke="#f3f6ef" stroke-width="14" stroke-linecap="round" opacity=".68"/>
  <path d="M132 144h64v86h120v-86h64v224h-64v-88H196v88h-64V144Z" fill="url(#green)" filter="url(#glow)"/>
  <path d="M231 144h149v54h-86v40h73v52h-73v78h-63V144Z" fill="#f3f6ef"/>
  <circle cx="395" cy="333" r="30" fill="#70ff9d"/>
  <path d="M395 306v54M368 333h54M377 315l36 36M413 315l-36 36" stroke="#06100d" stroke-width="7" stroke-linecap="round" opacity=".8"/>
</svg>
